<svg class="svg-icon" style="width:1em;height:1em;vertical-align:middle;fill:currentColor;overflow:hidden" viewBox="0 0 1024 1024" xmlns="http://www.w3.org/2000/svg"><path d="m224 739.67 109.824-109.825A361.11 361.11 0 0 1 256 405.333c0-200.298 162.368-362.666 362.667-362.666s362.666 162.368 362.666 362.666S818.965 768 618.667 768a361.11 361.11 0 0 1-224.512-77.824L284.33 800l87.168 87.168a42.667 42.667 0 0 1-60.331 60.33L224 860.332 115.499 968.832a42.667 42.667 0 0 1-60.331-60.33L163.669 800l-87.168-87.168a42.667 42.667 0 0 1 60.331-60.33L224 739.668zm394.667-57.003C771.84 682.667 896 558.507 896 405.333S771.84 128 618.667 128 341.333 252.16 341.333 405.333s124.16 277.334 277.334 277.334z"/></svg>