<svg class="svg-icon" style="width:1em;height:1em;vertical-align:middle;fill:currentColor;overflow:hidden" viewBox="0 0 1024 1024" xmlns="http://www.w3.org/2000/svg"><path d="M629.845 333.824 835.67 128H725.333a42.667 42.667 0 1 1 0-85.333h213.334a42.667 42.667 0 0 1 42.666 42.666v213.334a42.667 42.667 0 1 1-85.333 0V188.33L690.176 394.155A361.11 361.11 0 0 1 768 618.667c0 200.298-162.368 362.666-362.667 362.666S42.667 818.965 42.667 618.667 205.035 256 405.333 256c84.779 0 162.752 29.077 224.512 77.824zM405.333 896c153.174 0 277.334-124.16 277.334-277.333s-124.16-277.334-277.334-277.334S128 465.493 128 618.667 252.16 896 405.333 896z" fill="#000"/></svg>